<?xml version="1.0" encoding="utf-8"?>
<!-- Generator: Adobe Illustrator 17.0.0, SVG Export Plug-In . SVG Version: 6.00 Build 0)  -->
<!DOCTYPE svg PUBLIC "-//W3C//DTD SVG 1.1//EN" "http://www.w3.org/Graphics/SVG/1.1/DTD/svg11.dtd">
<svg version="1.1" id="图层_1" xmlns="http://www.w3.org/2000/svg" xmlns:xlink="http://www.w3.org/1999/xlink" x="0px" y="0px"
	 width="566.93px" height="566.93px" viewBox="0 0 566.93 566.93" enable-background="new 0 0 566.93 566.93" xml:space="preserve">
<g>
	<polygon fill="#040000" points="-132.912,233.877 -132.912,248.303 -102.398,248.303 -102.398,336.667 -87.77,336.667 
		-87.77,248.303 -57.324,248.303 -57.324,233.877 	"/>
	<path fill="#040000" d="M-329.228,289.795V184.501l-52.816,52.813l-53.095-52.813v105.905l-24.7,24.696l24.7,24.706v100.131
		h105.911v-99.164l25.663-25.621L-329.228,289.795z M-425.853,206.964l37.151,37.007l-37.151,37.154V206.964z M-338.448,430.714
		h-80.863l80.863-80.733V430.714z M-425.853,424.094V306.479l-9.286,9.283v11.005l-11.653-11.666l108.343-108.34V323.94l9.212-9.085
		l0.012-11.712l12.513,11.984L-425.853,424.094z"/>
	<rect x="-260.071" y="233.877" fill="#040000" width="14.68" height="102.789"/>
	<path fill="#040000" d="M-167.336,233.95l0.065,72.634l-0.533-0.859c-9.758-15.739-40.081-65.374-43.507-70.982l-0.485-0.793
		h-15.306v102.716h15.822v-72.554l0.532,0.866c9.387,15.277,39.911,65.094,43.36,70.724l0.592,0.964h15.283V233.95H-167.336z"/>
	<path fill="#040000" d="M-381.839,105.556l-92.067,46.025l92.065,46.735l92.343-46.707L-381.839,105.556z M-453.02,151.662
		l71.212-35.6l71.424,35.621l-71.426,36.127L-453.02,151.662z"/>
</g>
<g>
	<polygon fill="#FFFFFF" points="-156.795,819.592 -156.795,834.017 -126.281,834.017 -126.281,922.381 -111.653,922.381 
		-111.653,834.017 -81.207,834.017 -81.207,819.592 	"/>
	<path fill="#FFFFFF" d="M-353.111,875.51V770.215l-52.816,52.813l-53.095-52.813V876.12l-24.7,24.696l24.7,24.706v100.131h105.911
		V926.49l25.663-25.621L-353.111,875.51z M-449.736,792.678l37.151,37.007l-37.151,37.154V792.678z M-362.331,1016.429h-80.863
		l80.863-80.734V1016.429z M-449.736,1009.809V892.194l-9.286,9.283v11.005l-11.653-11.666l108.343-108.34v117.178l9.212-9.085
		l0.012-11.712l12.513,11.984L-449.736,1009.809z"/>
	<rect x="-283.954" y="819.592" fill="#FFFFFF" width="14.68" height="102.789"/>
	<path fill="#FFFFFF" d="M-191.219,819.665l0.065,72.634l-0.533-0.859c-9.758-15.739-40.081-65.374-43.507-70.982l-0.485-0.793
		h-15.306v102.716h15.822v-72.554l0.532,0.866c9.387,15.278,39.91,65.094,43.36,70.724l0.592,0.964h15.283V819.665H-191.219z"/>
	<path fill="#FFFFFF" d="M-405.722,691.271l-92.067,46.025l92.065,46.735l92.343-46.707L-405.722,691.271z M-476.903,737.376
		l71.212-35.6l71.424,35.621l-71.426,36.127L-476.903,737.376z"/>
</g>
<g>
	<polygon fill="#DB1D28" points="422.435,233.877 422.435,248.303 452.948,248.303 452.948,336.667 467.576,336.667 
		467.576,248.303 498.023,248.303 498.023,233.877 	"/>
	<path fill="#DB1D28" d="M226.119,289.795V184.501l-52.816,52.813l-53.095-52.813v105.905l-24.7,24.696l24.7,24.706v100.131h105.911
		v-99.164l25.663-25.621L226.119,289.795z M129.494,206.964l37.151,37.007l-37.151,37.154V206.964z M216.899,430.714h-80.863
		l80.863-80.733V430.714z M129.494,424.094V306.479l-9.286,9.283v11.005l-11.653-11.666l108.343-108.34V323.94l9.212-9.085
		l0.012-11.712l12.513,11.984L129.494,424.094z"/>
	<rect x="295.276" y="233.877" fill="#DB1D28" width="14.68" height="102.789"/>
	<path fill="#DB1D28" d="M388.011,233.95l0.065,72.634l-0.533-0.859c-9.758-15.739-40.081-65.374-43.507-70.982l-0.485-0.793
		h-15.306v102.716h15.822v-72.554l0.532,0.866c9.387,15.277,39.91,65.094,43.36,70.724l0.592,0.964h15.283V233.95H388.011z"/>
	<path fill="#DB1D28" d="M173.508,105.556l-92.067,46.025l92.065,46.735l92.343-46.707L173.508,105.556z M102.327,151.662
		l71.212-35.6l71.424,35.621l-71.426,36.127L102.327,151.662z"/>
</g>
</svg>
